<svg width="1448" height="1283" viewBox="0 0 448 283" fill="none" xmlns="http://www.w3.org/2000/svg">
<path d="M386.693 39.5506C387.122 39.6548 387.545 39.762 387.963 39.8723C387.59 41.177 388.328 42.5462 389.631 42.9474C398.864 45.7907 404.494 50.1669 406.728 55.7457C408.962 61.3244 407.909 68.3771 403.19 76.8071C402.524 77.9968 402.935 79.4971 404.105 80.1839C403.879 80.5522 403.647 80.9218 403.409 81.2929C402.276 80.5375 400.742 80.8281 399.965 81.9528C392.899 92.186 381.317 103.563 365.993 115.354C364.901 116.194 364.695 117.758 365.529 118.852C365.173 119.121 364.815 119.391 364.455 119.66C363.635 118.556 362.074 118.322 360.965 119.139C349.208 127.802 335.556 136.605 320.361 145.266C319.163 145.949 318.744 147.472 319.424 148.671C319.033 148.891 318.642 149.111 318.25 149.331C317.579 148.127 316.06 147.693 314.854 148.361C301.464 155.782 286.968 163.069 271.595 170.041C270.339 170.611 269.782 172.09 270.349 173.346C269.947 173.526 269.546 173.706 269.143 173.886C268.583 172.626 267.109 172.057 265.847 172.615C258.582 175.827 251.132 178.966 243.521 182.014C235.911 185.062 228.353 187.932 220.879 190.622C219.581 191.089 218.907 192.519 219.371 193.817C218.956 193.964 218.541 194.112 218.126 194.258C217.669 192.958 216.245 192.272 214.943 192.727C199.006 198.292 183.488 203.024 168.677 206.897C167.343 207.245 166.543 208.608 166.889 209.942C166.453 210.054 166.018 210.165 165.584 210.275C165.248 208.938 163.894 208.125 162.556 208.458C145.582 212.679 129.628 215.731 115.141 217.577C113.774 217.752 112.807 218.998 112.975 220.364C112.529 220.417 112.084 220.469 111.64 220.52C111.489 219.153 110.26 218.163 108.891 218.309C89.6633 220.353 73.4303 220.115 61.2537 217.587C59.9154 217.31 58.605 218.158 58.3066 219.487C57.8782 219.382 57.455 219.275 57.037 219.165C57.4098 217.86 56.6717 216.491 55.3687 216.09C46.1358 213.246 40.5056 208.87 38.2716 203.291C36.0376 197.713 37.0912 190.66 41.8098 182.23C42.4757 181.04 42.0649 179.54 40.8945 178.853C41.1209 178.485 41.3531 178.115 41.5912 177.744C42.7242 178.5 44.2579 178.209 45.0345 177.084C52.1012 166.851 63.6832 155.475 79.0073 143.683C80.0988 142.843 80.305 141.279 79.4705 140.185C79.8268 139.916 80.1849 139.646 80.5448 139.377C81.3654 140.481 82.9256 140.716 84.0346 139.898C95.7921 131.235 109.444 122.432 124.639 113.771C125.837 113.088 126.256 111.565 125.576 110.366C125.967 110.146 126.358 109.926 126.75 109.706C127.421 110.91 128.94 111.345 130.146 110.676C143.536 103.255 158.032 95.9686 173.405 88.9961C174.661 88.4265 175.218 86.9476 174.651 85.6911C175.053 85.5109 175.455 85.3309 175.857 85.1512C176.417 86.411 177.891 86.9801 179.153 86.4224C186.418 83.21 193.868 80.0708 201.479 77.0231C209.089 73.9754 216.647 71.1051 224.121 68.4149C225.419 67.9479 226.093 66.5184 225.629 65.2204C226.044 65.0727 226.459 64.9256 226.874 64.779C227.331 66.0796 228.755 66.7652 230.057 66.3105C245.994 60.7449 261.512 56.0127 276.323 52.1406C277.657 51.7919 278.457 50.4292 278.111 49.0952C278.547 48.9835 278.982 48.8725 279.416 48.7623C279.752 50.0988 281.106 50.912 282.444 50.5793C299.418 46.3584 315.372 43.3062 329.859 41.4597C331.226 41.2855 332.193 40.0393 332.025 38.6735C332.471 38.6202 332.916 38.5681 333.36 38.5171C333.511 39.8846 334.74 40.8738 336.109 40.7282C355.337 38.6841 371.57 38.9223 383.746 41.4497C385.085 41.7275 386.395 40.8792 386.693 39.5506Z" stroke="url(#paint0_radial_56_4)" stroke-opacity="0.82" stroke-width="5" stroke-linecap="round" stroke-linejoin="round" stroke-dasharray="46 6"/>
<path d="M372.693 62.5506C373.122 62.6548 373.545 62.762 373.963 62.8723C373.59 64.177 374.328 65.5462 375.631 65.9474C384.864 68.7907 390.494 73.1669 392.728 78.7457C394.962 84.3244 393.909 91.3771 389.19 99.8071C388.524 100.997 388.935 102.497 390.105 103.184C389.879 103.552 389.647 103.922 389.409 104.293C388.276 103.537 386.742 103.828 385.965 104.953C378.899 115.186 367.317 126.563 351.993 138.354C350.901 139.194 350.695 140.758 351.529 141.852C351.173 142.121 350.815 142.391 350.455 142.66C349.635 141.556 348.074 141.322 346.965 142.139C335.208 150.802 321.556 159.605 306.361 168.266C305.163 168.949 304.744 170.472 305.424 171.671C305.033 171.891 304.642 172.111 304.25 172.331C303.579 171.127 302.06 170.693 300.854 171.361C287.464 178.782 272.968 186.069 257.595 193.041C256.339 193.611 255.782 195.09 256.349 196.346C255.947 196.526 255.546 196.706 255.143 196.886C254.583 195.626 253.109 195.057 251.847 195.615C244.582 198.827 237.132 201.966 229.521 205.014C221.911 208.062 214.353 210.932 206.879 213.622C205.581 214.089 204.907 215.519 205.371 216.817C204.956 216.964 204.541 217.112 204.126 217.258C203.669 215.958 202.245 215.272 200.943 215.727C185.006 221.292 169.488 226.024 154.677 229.897C153.343 230.245 152.543 231.608 152.889 232.942C152.453 233.054 152.018 233.165 151.584 233.275C151.248 231.938 149.894 231.125 148.556 231.458C131.582 235.679 115.628 238.731 101.141 240.577C99.7742 240.752 98.8068 241.998 98.9755 243.364C98.5289 243.417 98.0837 243.469 97.64 243.52C97.4889 242.153 96.2603 241.163 94.8909 241.309C75.6633 243.353 59.4303 243.115 47.2537 240.587C45.9154 240.31 44.605 241.158 44.3066 242.487C43.8782 242.382 43.455 242.275 43.037 242.165C43.4098 240.86 42.6717 239.491 41.3687 239.09C32.1358 236.246 26.5056 231.87 24.2716 226.291C22.0376 220.713 23.0912 213.66 27.8098 205.23C28.4757 204.04 28.0649 202.54 26.8945 201.853C27.1209 201.485 27.3531 201.115 27.5912 200.744C28.7242 201.5 30.2579 201.209 31.0345 200.084C38.1012 189.851 49.6832 178.475 65.0073 166.683C66.0988 165.843 66.305 164.279 65.4705 163.185C65.8268 162.916 66.1849 162.646 66.5448 162.377C67.3654 163.481 68.9256 163.716 70.0346 162.898C81.7921 154.235 95.4437 145.432 110.639 136.771C111.837 136.088 112.256 134.565 111.576 133.366C111.967 133.146 112.358 132.926 112.75 132.706C113.421 133.91 114.94 134.345 116.146 133.676C129.536 126.255 144.032 118.969 159.405 111.996C160.661 111.427 161.218 109.948 160.651 108.691C161.053 108.511 161.455 108.331 161.857 108.151C162.417 109.411 163.891 109.98 165.153 109.422C172.418 106.21 179.868 103.071 187.479 100.023C195.089 96.9754 202.647 94.1051 210.121 91.4149C211.419 90.9479 212.093 89.5184 211.629 88.2204C212.044 88.0727 212.459 87.9256 212.874 87.779C213.331 89.0796 214.755 89.7652 216.057 89.3105C231.994 83.7449 247.512 79.0127 262.323 75.1406C263.657 74.7919 264.457 73.4292 264.111 72.0952C264.547 71.9835 264.982 71.8725 265.416 71.7623C265.752 73.0988 267.106 73.912 268.444 73.5793C285.418 69.3584 301.372 66.3062 315.859 64.4597C317.226 64.2855 318.193 63.0393 318.025 61.6735C318.471 61.6202 318.916 61.5681 319.36 61.5171C319.511 62.8846 320.74 63.8738 322.109 63.7282C341.337 61.6841 357.57 61.9223 369.746 64.4497C371.085 64.7275 372.395 63.8792 372.693 62.5506Z" stroke="url(#paint1_radial_56_4)" stroke-opacity="0.82" stroke-width="5" stroke-linecap="round" stroke-linejoin="round" stroke-dasharray="46 6"/>
<path d="M425.045 98.4066C425.171 98.51 425.297 98.6137 425.421 98.7176C424.529 99.7321 424.603 101.279 425.6 102.202C431.059 107.257 434.224 112.756 435.064 118.629C435.904 124.502 434.406 130.668 430.583 137.05C429.885 138.215 430.247 139.721 431.388 140.445C431.298 140.58 431.206 140.714 431.114 140.849C430.014 140.058 428.477 140.288 427.658 141.376C421.066 150.137 410.369 159.002 396.176 167.524C394.997 168.232 394.612 169.759 395.312 170.941C395.172 171.022 395.032 171.104 394.892 171.185C394.209 169.993 392.69 169.575 391.492 170.252C380.554 176.435 367.843 182.37 353.662 187.893C352.378 188.393 351.741 189.838 352.237 191.123C352.087 191.18 351.936 191.237 351.785 191.295C351.3 190.006 349.863 189.353 348.572 189.835C336.232 194.443 322.867 198.736 308.669 202.615C307.339 202.978 306.555 204.35 306.915 205.68C306.762 205.721 306.609 205.762 306.456 205.803C306.103 204.47 304.738 203.674 303.405 204.024C290.376 207.441 276.687 210.508 262.479 213.154C261.123 213.406 260.228 214.708 260.478 216.064C260.311 216.094 260.145 216.125 259.978 216.155C259.735 214.798 258.439 213.893 257.082 214.134C250.283 215.337 243.373 216.444 236.366 217.446C229.358 218.448 222.415 219.322 215.552 220.072C214.181 220.222 213.191 221.454 213.338 222.824C213.169 222.842 213.001 222.86 212.833 222.877C212.692 221.506 211.468 220.507 210.096 220.644C195.717 222.087 181.716 222.979 168.252 223.351C166.874 223.389 165.787 224.535 165.822 225.913C165.663 225.917 165.505 225.92 165.346 225.924C165.319 224.546 164.182 223.449 162.804 223.473C148.087 223.729 134.055 223.354 120.918 222.389C119.544 222.288 118.348 223.318 118.243 224.691C118.082 224.678 117.921 224.665 117.761 224.652C117.877 223.28 116.861 222.072 115.488 221.952C100.327 220.624 86.4625 218.489 74.2296 215.62C72.89 215.306 71.5494 216.133 71.228 217.469C71.0705 217.43 70.9132 217.391 70.7563 217.352C71.0969 216.021 70.2993 214.663 68.9688 214.314C52.9561 210.112 40.2041 204.6 31.4204 198.037C30.3291 197.222 28.7895 197.432 27.9548 198.5C27.8287 198.396 27.7034 198.293 27.579 198.189C28.4715 197.174 28.397 195.628 27.3999 194.704C21.9415 189.649 18.7756 184.151 17.9358 178.278C17.096 172.404 18.5938 166.239 22.4168 159.857C23.1151 158.691 22.7531 157.185 21.6121 156.462C21.7024 156.327 21.7936 156.192 21.8857 156.058C22.9862 156.849 24.5229 156.619 25.342 155.53C31.9345 146.769 42.6305 137.904 56.8238 129.383C58.0031 128.675 58.3881 127.148 57.6882 125.966C57.828 125.884 57.968 125.803 58.1083 125.721C58.7912 126.913 60.31 127.332 61.5077 126.655C72.4461 120.472 85.1569 114.537 99.3378 109.013C100.622 108.513 101.259 107.069 100.763 105.784C100.913 105.726 101.064 105.669 101.215 105.612C101.7 106.9 103.137 107.554 104.428 107.072C116.768 102.464 130.133 98.1709 144.331 94.2917C145.661 93.9283 146.445 92.557 146.085 91.2269C146.238 91.1858 146.391 91.1449 146.544 91.1039C146.897 92.4361 148.262 93.2322 149.595 92.8824C162.624 89.4658 176.313 86.3985 190.521 83.753C191.877 83.5005 192.772 82.1981 192.522 80.8425C192.689 80.8122 192.855 80.7819 193.022 80.7517C193.265 82.1086 194.561 83.0131 195.918 82.7727C202.717 81.5691 209.627 80.4625 216.634 79.4605C223.642 78.4584 230.585 77.584 237.448 76.8341C238.819 76.6843 239.809 75.4528 239.662 74.0823C239.831 74.0645 239.999 74.0469 240.167 74.0293C240.308 75.4006 241.532 76.3999 242.904 76.2623C257.283 74.82 271.284 73.9277 284.748 73.5558C286.126 73.5178 287.213 72.3712 287.178 70.9936C287.337 70.9899 287.495 70.9863 287.654 70.9829C287.681 72.3606 288.818 73.4571 290.196 73.4332C304.913 73.1776 318.945 73.5529 332.082 74.5178C333.456 74.6187 334.652 73.5886 334.757 72.2155C334.918 72.2283 335.079 72.2412 335.239 72.2542C335.123 73.6263 336.139 74.8345 337.512 74.9547C352.673 76.2823 366.538 78.417 378.77 81.2867C380.11 81.6009 381.451 80.7738 381.772 79.4378C381.929 79.4766 382.087 79.5157 382.244 79.5548C381.903 80.8855 382.701 82.2434 384.031 82.5925C400.044 86.7946 412.796 92.3066 421.58 98.8691C422.671 99.6845 424.21 99.4747 425.045 98.4066Z" stroke="url(#paint2_radial_56_4)" stroke-opacity="0.82" stroke-width="5" stroke-linecap="round" stroke-linejoin="round" stroke-dasharray="46 6"/>
<path d="M398.284 58.208C398.696 58.3635 399.103 58.5214 399.505 58.6817C398.976 59.9314 399.542 61.3802 400.787 61.9368C409.606 65.8814 414.662 70.9096 416.201 76.7185C417.741 82.5275 415.837 89.3998 410.129 97.1937C409.323 98.2936 409.549 99.8327 410.627 100.657C410.358 100.995 410.082 101.333 409.801 101.673C408.768 100.785 407.21 100.887 406.303 101.909C398.044 111.207 385.165 121.092 368.521 130.933C367.336 131.634 366.941 133.161 367.636 134.348C367.25 134.572 366.862 134.796 366.472 135.02C365.792 133.824 364.271 133.402 363.071 134.078C350.348 141.248 335.728 148.326 319.592 155.076C318.32 155.608 317.719 157.069 318.248 158.341C317.833 158.512 317.418 158.683 317.002 158.854C316.483 157.577 315.028 156.961 313.75 157.478C299.556 163.217 284.283 168.687 268.176 173.739C266.86 174.151 266.127 175.552 266.537 176.868C266.117 176.998 265.696 177.128 265.275 177.257C264.872 175.939 263.478 175.194 262.158 175.595C254.556 177.9 246.78 180.11 238.855 182.21C230.93 184.31 223.08 186.24 215.334 188.002C213.989 188.308 213.146 189.645 213.449 190.99C213.019 191.086 212.589 191.181 212.16 191.276C211.864 189.93 210.534 189.076 209.187 189.369C192.691 192.956 176.713 195.767 161.541 197.81C160.174 197.994 159.215 199.249 159.396 200.615C158.95 200.673 158.505 200.73 158.06 200.787C157.889 199.42 156.644 198.448 155.275 198.615C137.914 200.742 121.707 201.832 107.103 201.903C105.726 201.91 104.614 203.029 104.615 204.406C104.166 204.404 103.717 204.402 103.271 204.399C103.287 203.023 102.188 201.892 100.811 201.87C81.4773 201.561 65.3936 199.351 53.6147 195.362C52.32 194.924 50.9163 195.607 50.4585 196.889C50.046 196.734 49.6389 196.576 49.2374 196.416C49.7661 195.166 49.1999 193.717 47.9553 193.16C39.1365 189.216 34.0801 184.188 32.5408 178.379C31.0016 172.57 32.9048 165.698 38.6132 157.904C39.4187 156.804 39.1933 155.265 38.1151 154.441C38.3846 154.103 38.66 153.764 38.9414 153.425C39.9742 154.312 41.5318 154.21 42.4395 153.188C50.6977 143.89 63.5768 134.006 80.2208 124.164C81.4062 123.463 81.801 121.936 81.1057 120.749C81.4921 120.525 81.8803 120.301 82.2703 120.077C82.9506 121.273 84.4707 121.695 85.6708 121.019C98.3942 113.85 113.015 106.771 129.151 100.021C130.423 99.4894 131.023 98.0284 130.495 96.7559C130.909 96.5849 131.324 96.4142 131.74 96.2437C132.259 97.5201 133.714 98.1358 134.993 97.619C149.186 91.8807 164.459 86.4104 180.567 81.3586C181.882 80.9458 182.615 79.5456 182.205 78.2295C182.625 78.0994 183.046 77.9696 183.467 77.8402C183.87 79.1587 185.264 79.9028 186.584 79.5026C194.186 77.1972 201.962 74.987 209.887 72.8871C217.812 70.7872 225.662 68.8569 233.409 67.0953C234.753 66.7895 235.596 65.4525 235.293 64.1077C235.723 64.0116 236.153 63.916 236.582 63.8209C236.878 65.1674 238.208 66.021 239.556 65.728C256.051 62.141 272.029 59.3304 287.202 57.2875C288.568 57.1036 289.527 55.8482 289.346 54.4821C289.792 54.4241 290.238 54.3669 290.682 54.3103C290.853 55.6776 292.098 56.6495 293.467 56.4819C310.828 54.3557 327.035 53.2656 341.639 53.194C343.017 53.1872 344.128 52.0678 344.127 50.6917C344.577 50.693 345.025 50.6954 345.471 50.6988C345.455 52.0745 346.554 53.2057 347.931 53.2277C367.265 53.5361 383.349 55.7459 395.128 59.7348C396.422 60.1732 397.826 59.4905 398.284 58.208Z" stroke="url(#paint3_radial_56_4)" stroke-opacity="0.82" stroke-width="5" stroke-linecap="round" stroke-linejoin="round" stroke-dasharray="46 6"/>
<defs>
<radialGradient id="paint0_radial_56_4" cx="0" cy="0" r="1" gradientUnits="userSpaceOnUse" gradientTransform="translate(222.5 129.519) rotate(68.1767) scale(59.0479 200.95)">
<stop offset="0.953125" stop-color="#FF0000"/>
<stop offset="1" stop-color="#FF0000" stop-opacity="0"/>
</radialGradient>
<radialGradient id="paint1_radial_56_4" cx="0" cy="0" r="1" gradientUnits="userSpaceOnUse" gradientTransform="translate(208.5 152.519) rotate(68.1767) scale(59.0479 200.95)">
<stop offset="0.953125" stop-color="#FF0000"/>
<stop offset="1" stop-color="#FF0000" stop-opacity="0"/>
</radialGradient>
<radialGradient id="paint2_radial_56_4" cx="0" cy="0" r="1" gradientUnits="userSpaceOnUse" gradientTransform="translate(226.5 148.453) rotate(81.862) scale(72.1946 213.186)">
<stop offset="0.953125" stop-color="#FF0000"/>
<stop offset="1" stop-color="#FF0000" stop-opacity="0"/>
</radialGradient>
<radialGradient id="paint3_radial_56_4" cx="0" cy="0" r="1" gradientUnits="userSpaceOnUse" gradientTransform="translate(224.371 127.549) rotate(75.1591) scale(59.0479 200.95)">
<stop offset="0.953125" stop-color="#FF0000"/>
<stop offset="1" stop-color="#FF0000" stop-opacity="0"/>
</radialGradient>
</defs>
</svg>
